<?xml version="1.0" encoding="UTF-8"?>
<svg width="42px" height="32px" viewBox="0 0 42 32" version="1.1" xmlns="http://www.w3.org/2000/svg" xmlns:xlink="http://www.w3.org/1999/xlink">
    <!-- Generator: Sketch 52.6 (67491) - http://www.bohemiancoding.com/sketch -->
    <title>noun_bladder_2577106</title>
    <desc>Created with Sketch.</desc>
    <g id="desktop" stroke="none" stroke-width="1" fill="none" fill-rule="evenodd">
        <g id="Custom-Preset-7" transform="translate(-939.000000, -1812.000000)" fill="#FFFFFF" fill-rule="nonzero">
            <g id="noun_bladder_2577106" transform="translate(939.000000, 1812.000000)">
                <path d="M40.2461538,0.64 C40.1538462,0.457142857 39.9692308,0.365714286 39.7846154,0.365714286 C39.6461538,0.365714286 39.5076923,0.411428571 39.4153846,0.502857143 C37.8923077,2.10285714 36.3230769,3.93142857 35.1230769,4.25142857 C35.0769231,4.25142857 35.0307692,4.29714286 34.9846154,4.29714286 C34.8461538,4.34285714 34.7076923,4.34285714 34.5230769,4.34285714 C34.4769231,4.34285714 34.4307692,4.34285714 34.3846154,4.34285714 C33.8307692,4.34285714 33.2307692,4.16 32.7692308,3.84 C30.3692308,2.28571429 26.8615385,0.731428571 22.2,0.731428571 C21.8769231,0.731428571 21.5538462,0.731428571 21.2307692,0.777142857 L21.0923077,0.777142857 C20.7692308,0.777142857 20.4461538,0.731428571 20.1230769,0.731428571 C15.4615385,0.731428571 11.9538462,2.28571429 9.55384615,3.84 C9.09230769,4.16 8.49230769,4.34285714 7.93846154,4.34285714 C7.89230769,4.34285714 7.84615385,4.34285714 7.8,4.34285714 C7.66153846,4.34285714 7.52307692,4.29714286 7.33846154,4.29714286 C7.29230769,4.29714286 7.24615385,4.29714286 7.2,4.25142857 C6.04615385,3.93142857 4.43076923,2.10285714 2.90769231,0.502857143 C2.81538462,0.411428571 2.67692308,0.365714286 2.53846154,0.365714286 C2.35384615,0.365714286 2.16923077,0.457142857 2.07692308,0.64 L0.369230769,3.47428571 C0.230769231,3.65714286 0.276923077,3.93142857 0.415384615,4.06857143 L4.70769231,8.73142857 L4.70769231,8.77714286 C4.89230769,9.00571429 5.07692308,9.18857143 5.26153846,9.41714286 C5.63076923,9.78285714 5.86153846,10.24 6,10.7428571 C8.21538462,19.9314286 12.8769231,23.1314286 16.6615385,24.1371429 C17.9538462,24.5028571 18.8307692,25.6 18.8307692,26.9257143 L18.8307692,31.1314286 C18.8307692,31.4057143 19.0615385,31.6342857 19.3384615,31.6342857 L22.6615385,31.6342857 C22.9384615,31.6342857 23.1692308,31.4057143 23.1692308,31.1314286 L23.1692308,26.9257143 C23.1692308,25.6 24.0461538,24.4571429 25.3384615,24.1371429 C29.1230769,23.1314286 33.8307692,19.9314286 36,10.7428571 C36.1384615,10.24 36.3692308,9.78285714 36.7384615,9.41714286 C36.9230769,9.18857143 37.1076923,9.00571429 37.2923077,8.77714286 L37.2923077,8.73142857 L41.5846154,4.06857143 C41.7230769,3.88571429 41.7692308,3.65714286 41.6307692,3.47428571 L40.2461538,0.64 Z M34.9384615,7.49714286 C34.2923077,8.22857143 33.7846154,9.09714286 33.5538462,10.0571429 C32.6769231,13.76 31.2923077,16.5942857 29.4461538,18.56 C28.1538462,19.9771429 26.5846154,20.9371429 24.8307692,21.3942857 C23.3538462,21.8057143 22.1076923,22.7657143 21.3692308,24.0457143 C21.2769231,24.1828571 21.1384615,24.1828571 21.0461538,24.0457143 C20.3076923,22.7657143 19.0615385,21.8057143 17.5846154,21.3942857 C15.8307692,20.9371429 14.3076923,19.9771429 12.9692308,18.56 C11.1692308,16.5942857 9.78461538,13.7142857 8.86153846,10.0114286 C8.63076923,9.05142857 8.16923077,8.18285714 7.47692308,7.45142857 C7.33846154,7.31428571 7.2,7.17714286 7.06153846,7.04 C7.24615385,7.08571429 7.43076923,7.08571429 7.66153846,7.08571429 C7.75384615,7.08571429 7.84615385,7.08571429 7.89230769,7.08571429 C9.04615385,7.08571429 10.1076923,6.76571429 11.0769231,6.12571429 C13.7538462,4.34285714 16.8,3.47428571 20.0769231,3.47428571 C20.3538462,3.47428571 20.6307692,3.47428571 20.9076923,3.47428571 L20.9538462,3.47428571 L21,3.47428571 L21.1384615,3.47428571 L21.1846154,3.47428571 L21.2307692,3.47428571 C21.5076923,3.47428571 21.7846154,3.47428571 22.0615385,3.47428571 C25.3384615,3.47428571 28.3846154,4.38857143 31.0615385,6.12571429 C31.9846154,6.76571429 33.0923077,7.08571429 34.2461538,7.08571429 C34.3384615,7.08571429 34.4307692,7.08571429 34.4769231,7.08571429 C34.6615385,7.08571429 34.8923077,7.04 35.0769231,7.04 C35.1692308,7.22285714 35.0307692,7.36 34.9384615,7.49714286 Z" id="Shape"></path>
                <path d="M30.6,14.4 C30.5538462,14.3542857 30.5076923,14.3542857 30.5076923,14.3542857 C30.4615385,14.3542857 30.4153846,14.3542857 30.3230769,14.3542857 C30.2307692,14.3542857 30.0923077,14.3542857 30,14.3542857 C29.8153846,14.3542857 29.5846154,14.3542857 29.4,14.3542857 C29.0307692,14.3542857 28.6615385,14.3542857 28.2923077,14.3542857 C27.9692308,14.3542857 27.6461538,14.4 27.3230769,14.4457143 C27.0461538,14.4914286 26.7230769,14.5371429 26.4461538,14.5828571 C26.1692308,14.6285714 25.8923077,14.6742857 25.6615385,14.7657143 C25.4307692,14.8114286 25.2,14.9028571 24.9230769,14.9485714 C24.6923077,14.9942857 24.4615385,15.0857143 24.2769231,15.1314286 C24.0461538,15.1771429 23.8615385,15.2685714 23.6307692,15.3142857 C23.4461538,15.36 23.2153846,15.4057143 23.0307692,15.4514286 C22.8461538,15.4971429 22.6615385,15.5428571 22.4307692,15.5885714 C22.2461538,15.6342857 22.0153846,15.6342857 21.8307692,15.6342857 C21.6461538,15.6342857 21.4153846,15.6342857 21.2307692,15.6342857 C21.1846154,15.6342857 21.1384615,15.6342857 21.0923077,15.6342857 C19.9846154,15.5428571 19.1076923,14.9485714 18.0923077,14.5371429 C16.5230769,13.9428571 14.7692308,13.76 13.1076923,14.1257143 C12.8769231,14.1714286 12,14.2628571 11.9076923,14.4457143 C11.8153846,14.6285714 11.9076923,14.6285714 11.9538462,14.7657143 C12,15.04 12.2769231,15.36 12.4615385,15.5428571 C13.7076923,17.4171429 15.5076923,19.1085714 17.7230769,19.6571429 C18.5538462,19.8857143 19.3384615,20.2057143 20.0307692,20.7085714 C20.4461538,21.0285714 20.8153846,21.3485714 21.0461538,21.6685714 C21.1384615,21.76 21.3230769,21.76 21.3692308,21.6685714 C21.6,21.3485714 22.0153846,20.9828571 22.4307692,20.7085714 C23.1230769,20.2057143 23.9076923,19.8857143 24.6923077,19.6571429 C26.4,19.2457143 27.8769231,18.1028571 28.9846154,16.8228571 C29.2153846,16.5485714 29.4923077,16.2285714 29.7230769,15.9542857 C29.9538462,15.6342857 30.1846154,15.3142857 30.3692308,14.9485714 C30.4153846,14.8571429 30.4615385,14.7657143 30.5076923,14.6742857 C30.5076923,14.6285714 30.5538462,14.5828571 30.5538462,14.5371429 C30.6,14.4914286 30.6461538,14.4457143 30.6,14.4 C30.6461538,14.4 30.6461538,14.4 30.6,14.4 Z" id="Path"></path>
            </g>
        </g>
    </g>
</svg>