<?xml version="1.0" encoding="UTF-8"?>
<svg width="32px" height="32px" viewBox="0 0 32 32" version="1.1" xmlns="http://www.w3.org/2000/svg" xmlns:xlink="http://www.w3.org/1999/xlink">
    <!-- Generator: Sketch 52.6 (67491) - http://www.bohemiancoding.com/sketch -->
    <title>Shape</title>
    <desc>Created with Sketch.</desc>
    <g id="desktop" stroke="none" stroke-width="1" fill="none" fill-rule="evenodd">
        <g id="Custom-Preset-7" transform="translate(-741.000000, -1809.000000)" fill="#FFFFFF" fill-rule="nonzero">
            <g id="Group-29" transform="translate(661.000000, 1612.000000)">
                <g id="noun_Male_2079397" transform="translate(80.000000, 197.000000)">
                    <path d="M31.1563636,1.62909091 C31.0087638,1.27367372 30.7263263,0.99123625 30.3709091,0.843636364 C30.1960403,0.769104037 30.0082578,0.729570891 29.8181818,0.727272727 L22.5454545,0.727272727 C21.7421313,0.727272727 21.0909091,1.37849491 21.0909091,2.18181818 C21.0909091,2.98514145 21.7421313,3.63636364 22.5454545,3.63636364 L26.3127273,3.63636364 L21.9490909,8 C16.5204144,3.66721019 8.65287603,4.32844469 4.02355295,9.50656834 C-0.605770125,14.684692 -0.38512887,22.5768848 4.52626588,27.4882796 C9.43766062,32.3996743 17.3298535,32.6203156 22.5079771,27.9909925 C27.6861008,23.3616694 28.3473353,15.4941311 24.0145455,10.0654545 L28.3781818,5.70181818 L28.3781818,9.45454545 C28.3781818,10.2578687 29.029404,10.9090909 29.8327273,10.9090909 C30.6360505,10.9090909 31.2872727,10.2578687 31.2872727,9.45454545 L31.2872727,2.18181818 C31.2803845,1.99076305 31.2359,1.80293991 31.1563636,1.62909091 Z M13.8181818,28.3636364 C8.19491891,28.3636364 3.63636364,23.8050811 3.63636364,18.1818182 C3.63636364,12.5585553 8.19491891,8 13.8181818,8 C19.4414447,8 24,12.5585553 24,18.1818182 C24,20.8822043 22.9272758,23.4719896 21.0178145,25.3814509 C19.1083532,27.2909122 16.5185679,28.3636364 13.8181818,28.3636364 Z" id="Shape"></path>
                </g>
            </g>
        </g>
    </g>
</svg>