<?xml version="1.0" encoding="UTF-8"?>
<svg width="25px" height="25px" viewBox="0 0 25 25" version="1.1" xmlns="http://www.w3.org/2000/svg" xmlns:xlink="http://www.w3.org/1999/xlink">
    <!-- Generator: Sketch 52.6 (67491) - http://www.bohemiancoding.com/sketch -->
    <title>F</title>
    <desc>Created with Sketch.</desc>
    <g id="desktop" stroke="none" stroke-width="1" fill="none" fill-rule="evenodd">
        <g id="Custom-Preset-7" transform="translate(-1120.000000, -31.000000)" fill="#0079DE" fill-rule="nonzero">
            <g id="Group-11" transform="translate(0.000000, -16.000000)">
                <g id="Group-12" transform="translate(1120.000000, 45.000000)">
                    <g id="Group-6">
                        <path d="M24.4999416,3.61723848 L24.4999416,25.3828116 C24.4999416,25.7473943 24.372338,26.0664037 24.11713,26.3398406 C23.861922,26.6132774 23.5337978,26.7499958 23.1327573,26.7499958 L16.8983972,26.7499958 L16.8983972,17.2343935 L20.0702646,17.2343935 L20.562451,13.5703398 L16.8983972,13.5703398 L16.8983972,11.2187829 C16.8983972,10.5989929 17.007772,10.161494 17.2265214,9.90628599 C17.5181871,9.57816177 18.0103734,9.41409966 18.7030804,9.41409966 L20.6718257,9.41409966 L20.6718257,6.07817011 C19.9062025,6.0052539 18.9582884,5.96879537 17.8280825,5.96879537 C16.4062109,5.96879537 15.2577761,6.38806549 14.3827782,7.22660488 C13.5077803,8.06514426 13.0702813,9.2682664 13.0702813,10.8359713 L13.0702813,13.5703398 L9.8984139,13.5703398 L9.8984139,17.2343935 L13.0702813,17.2343935 L13.0702813,26.7499958 L1.36718424,26.7499958 C0.966143808,26.7499958 0.63801959,26.6132774 0.382811587,26.3398406 C0.127603584,26.0664037 0,25.7473943 0,25.3828116 L0,3.61723848 C0,3.21619805 0.127603584,2.88807383 0.382811587,2.63286583 C0.63801959,2.37765782 0.966143808,2.25005424 1.36718424,2.25005424 L23.1327573,2.25005424 C23.4973401,2.25005424 23.8163495,2.37765782 24.0897863,2.63286583 C24.3632232,2.88807383 24.4999416,3.21619805 24.4999416,3.61723848 Z" id="F"></path>
                    </g>
                </g>
            </g>
        </g>
    </g>
</svg>