<?xml version="1.0" encoding="UTF-8"?>
<svg width="38px" height="38px" viewBox="0 0 38 38" version="1.1" xmlns="http://www.w3.org/2000/svg" xmlns:xlink="http://www.w3.org/1999/xlink">
    <!-- Generator: Sketch 52.6 (67491) - http://www.bohemiancoding.com/sketch -->
    <title>Shape</title>
    <desc>Created with Sketch.</desc>
    <g id="desktop" stroke="none" stroke-width="1" fill="none" fill-rule="evenodd">
        <g id="Custom-Preset-7" transform="translate(-524.000000, -1806.000000)" fill="#FFFFFF" fill-rule="nonzero" stroke="#FFFFFF" stroke-width="0.2">
            <g id="Group-28" transform="translate(446.000000, 1612.000000)">
                <path d="M97,195 C87.0749286,195 79,200.047071 79,206.25 C79,211.462929 84.4675,215.800286 92.185,217.101429 C91.2052857,217.867071 90.5714286,219.055714 90.5714286,220.392857 C90.5714286,222.696857 92.446,224.571429 94.75,224.571429 L95.0714286,224.571429 L95.0714286,231 L96.3571429,231 L96.3571429,223.928571 L96.3571429,221.357143 L96.3571429,217.5 L96.3571429,216.857143 L96.3571429,214.928571 C96.3571429,214.679143 96.2131429,214.452857 95.9881429,214.346786 L87.7692143,210.478714 C86.3472143,209.810143 85.4285714,208.361786 85.4285714,206.790643 C85.4285714,204.543214 87.2575,202.714286 89.5049286,202.714286 L104.494429,202.714286 C106.7425,202.714286 108.571429,204.543214 108.571429,206.790643 C108.571429,208.361786 107.652786,209.810143 106.230786,210.478714 L98.0118571,214.346786 C97.7868571,214.452857 97.6428571,214.679143 97.6428571,214.928571 L97.6428571,216.857143 L97.6428571,217.5 L97.6428571,221.357143 L97.6428571,223.928571 L97.6428571,231 L98.9285714,231 L98.9285714,224.571429 L99.25,224.571429 C101.554,224.571429 103.428571,222.696857 103.428571,220.392857 C103.428571,219.055714 102.794714,217.867071 101.815,217.101429 C109.5325,215.800286 115,211.462929 115,206.25 C115,200.047071 106.925071,195 97,195 Z M95.0714286,221.357143 L95.0714286,223.285714 L94.75,223.285714 C93.1550714,223.285714 91.8571429,221.987786 91.8571429,220.392857 C91.8571429,218.797929 93.1550714,217.5 94.75,217.5 L95.0714286,217.5 L95.0714286,221.357143 Z M99.25,223.285714 L98.9285714,223.285714 L98.9285714,221.357143 L98.9285714,217.5 L99.25,217.5 C100.844929,217.5 102.142857,218.797929 102.142857,220.392857 C102.142857,221.987786 100.844929,223.285714 99.25,223.285714 Z M98.9285714,216.146143 L98.9285714,215.336786 L106.777857,211.642929 C108.648571,210.762214 109.857143,208.858071 109.857143,206.790643 C109.857143,203.8335 107.451571,201.428571 104.495071,201.428571 L89.5049286,201.428571 C86.5484286,201.428571 84.1428571,203.8335 84.1428571,206.790643 C84.1428571,208.858071 85.3514286,210.762214 87.2221429,211.642929 L95.0714286,215.336786 L95.0714286,216.146143 C86.7277857,215.5695 80.2857143,211.299643 80.2857143,206.25 C80.2857143,200.7555 87.784,196.285714 97,196.285714 C106.216,196.285714 113.714286,200.7555 113.714286,206.25 C113.714286,211.299643 107.272214,215.5695 98.9285714,216.146143 Z" id="Shape"></path>
            </g>
        </g>
    </g>
</svg>