<?xml version="1.0" encoding="UTF-8"?>
<svg width="36px" height="30px" viewBox="0 0 36 30" version="1.1" xmlns="http://www.w3.org/2000/svg" xmlns:xlink="http://www.w3.org/1999/xlink">
    <!-- Generator: Sketch 52.6 (67491) - http://www.bohemiancoding.com/sketch -->
    <title>noun_Kidneys_518035</title>
    <desc>Created with Sketch.</desc>
    <g id="desktop" stroke="none" stroke-width="1" fill="none" fill-rule="evenodd">
        <g id="Custom-Preset-7" transform="translate(-1166.000000, -1810.000000)" fill="#FFFFFF" fill-rule="nonzero">
            <g id="noun_Kidneys_518035" transform="translate(1166.000000, 1810.000000)">
                <g id="Group">
                    <path d="M11.7586256,10.0451115 L11.271582,10.0451115 C11.389864,9.65608919 11.5707659,9.28790738 11.8421188,8.96140652 C15.2027201,4.68216123 11.5220616,-1.42108547e-13 7.50047244,-1.42108547e-13 C3.29102362,0.00694682676 -4.08562073e-14,4.84888508 -4.08562073e-14,11.0246141 C-4.08562073e-14,17.2072899 3.29102362,22.0492281 7.50047244,22.0492281 C12.0230208,22.0492281 15.2722978,16.7140652 11.9186543,12.9697256 C11.6612169,12.6779588 11.4663994,12.351458 11.3342019,12.0041166 L11.7586256,12.0041166 C13.3937008,12.0041166 14.729592,13.3309605 14.729592,14.9704117 L14.729592,28.4542024 C14.729592,28.9960549 15.1679313,29.433705 15.7106371,29.433705 C16.2533429,29.433705 16.6916822,28.9960549 16.6916822,28.4542024 L16.6916822,14.9704117 C16.6916822,12.2542024 14.4791124,10.0451115 11.7586256,10.0451115 Z M7.50047244,20.090223 C4.98176092,20.090223 2.80397996,17.1656089 2.16386543,13.3240137 L3.57629205,13.3240137 C4.11899785,13.3240137 4.55733715,12.8863636 4.55733715,12.3445111 C4.55733715,11.8026587 4.11899785,11.3650086 3.57629205,11.3650086 L1.97600573,11.3650086 C1.97600573,11.2538593 1.96209019,11.1427101 1.96209019,11.0246141 C1.96209019,10.4688679 1.99687903,9.92701544 2.05949893,9.3990566 L5.32269148,9.3990566 C5.86539728,9.3990566 6.30373658,8.96140652 6.30373658,8.41955403 C6.30373658,7.87770154 5.86539728,7.44005146 5.32269148,7.44005146 L2.43521832,7.44005146 C3.30493916,4.25145798 5.27398712,1.95900515 7.50047244,1.95900515 C10.0678883,2.11183533 12.5587688,4.61269297 10.3183679,7.72487136 C9.56692913,8.64879931 9.1772942,9.75334477 9.1772942,10.9204117 C9.1772942,12.1361063 9.62954903,13.3240137 10.4436077,14.2618353 C12.3917824,16.4153516 10.881947,19.7428816 7.50047244,20.090223 Z" id="Shape"></path>
                    <path d="M27.8449821,0.00694682676 C23.823393,0.00694682676 20.1427344,4.68216123 23.5033357,8.96835334 C23.7677309,9.2948542 23.9555906,9.66303602 24.0738726,10.0520583 L23.5868289,10.0520583 C20.8663422,10.0520583 18.6537724,12.2611492 18.6537724,14.9773585 L18.6537724,28.4611492 C18.6537724,29.0030017 19.0921117,29.4406518 19.6348175,29.4406518 C20.1775233,29.4406518 20.6158626,29.0030017 20.6158626,28.4611492 L20.6158626,14.9704117 C20.6158626,13.3379074 21.944796,12.0041166 23.5868289,12.0041166 L24.0112527,12.0041166 C23.8790551,12.351458 23.6842377,12.6779588 23.4268003,12.9697256 C20.0731568,16.7140652 23.3224338,22.0492281 27.8449821,22.0492281 C32.0474732,22.0492281 35.3454545,17.2072899 35.3454545,11.0246141 C35.3454545,4.84888508 32.0544309,0.00694682676 27.8449821,0.00694682676 Z M27.8449821,20.090223 C24.4635075,19.7428816 22.9536722,16.4153516 24.9088046,14.2618353 C25.7228633,13.3240137 26.1751181,12.1361063 26.1751181,10.9204117 C26.1751181,9.75334477 25.7785254,8.64879931 25.0340444,7.72487136 C22.7936435,4.61269297 25.284524,2.11878216 27.8519399,1.95900515 C30.8507373,1.95900515 33.3903221,6.10626072 33.3903221,11.0246141 C33.3903221,15.9429674 30.8437795,20.090223 27.8449821,20.090223 Z" id="Shape"></path>
                </g>
            </g>
        </g>
    </g>
</svg>