<?xml version="1.0" encoding="UTF-8"?>
<svg width="28px" height="28px" viewBox="0 0 28 28" version="1.1" xmlns="http://www.w3.org/2000/svg" xmlns:xlink="http://www.w3.org/1999/xlink">
    <!-- Generator: Sketch 52.6 (67491) - http://www.bohemiancoding.com/sketch -->
    <title></title>
    <desc>Created with Sketch.</desc>
    <g id="desktop" stroke="none" stroke-width="1" fill="none" fill-rule="evenodd">
        <g id="Custom-Preset-7" transform="translate(-1092.000000, -139.000000)" fill="#FFF" fill-rule="nonzero">
            <g id="Group-18" transform="translate(1058.000000, 117.000000)">
                <g id="Group-17" transform="translate(34.000000, 19.000000)">
                    <path d="M23.8124432,7.0625523 C25.1457731,8.39588214 26.1770206,9.90629552 26.9061859,11.5937915 C27.6353511,13.2812875 27.9999332,15.0417003 27.9999332,16.8750289 C27.9999332,19.3750229 27.3645178,21.6875174 26.0936878,23.8125124 C24.8228578,25.9375073 23.1145279,27.6250033 20.9687,28.8750003 C18.8228721,30.1249973 16.4999607,30.7499958 13.9999666,30.7499958 C11.6249723,30.7499958 9.41664453,30.1874972 7.37498242,29.0624999 L0,30.9999952 L2,23.8125124 C0.749998212,21.6875174 0.124999702,19.3750229 0.124999702,16.8750289 C0.124999702,14.3750349 0.749998212,12.0625404 2,9.93754545 C3.24999225,7.81255051 4.93748823,6.12505454 7.06248316,4.87505752 C9.1874781,3.6250605 11.4999726,3.00006199 13.9999666,3.00006199 C15.8332953,3.00006199 17.5937081,3.35422813 19.281204,4.06255946 C20.9687,4.77089078 22.4791134,5.7708884 23.8124432,7.0625523 Z M13.9999666,28.4375013 C16.0832947,28.4375013 18.0207901,27.9166696 19.8124528,26.8750051 C21.6041155,25.8333406 23.0311951,24.4270939 24.0936926,22.6562651 C25.15619,20.8854363 25.6874388,18.958357 25.6874388,16.8750289 C25.6874388,15.3750325 25.3749395,13.9167029 24.749941,12.5000393 C24.1249425,11.0833757 23.2603615,9.82296271 22.1561972,8.71879835 C21.0520328,7.614634 19.8020358,6.77088601 18.4062061,6.18755439 C17.0103764,5.60422276 15.5416299,5.31255648 13.9999666,5.31255648 C11.9166386,5.31255648 9.9895592,5.83338825 8.2187304,6.87505275 C6.44790161,7.91671725 5.04165496,9.3229639 3.99999046,11.0937927 C2.95832596,12.8646215 2.43749419,14.7917009 2.43749419,16.8750289 C2.43749419,19.0833567 3.04165973,21.1250188 4.24998987,23.0000143 L4.49998927,23.4375133 L3.3124921,27.6875031 L7.68748167,26.5625058 L8.12498063,26.8125052 C9.91664334,27.8958356 11.8749717,28.4375013 13.9999666,28.4375013 Z M20.3124516,19.7500221 L20.4999511,19.8750218 C20.7916174,20.0000215 20.958283,20.1041882 20.9999499,20.187521 C21.0416164,20.2708538 21.0520328,20.4791873 21.0311999,20.8125195 C21.0103669,21.1458517 20.9270331,21.4896009 20.7812005,21.8437671 C20.6353678,22.1979332 20.3020346,22.5520984 19.7812028,22.9062645 C19.2603711,23.2604307 18.8124551,23.4583462 18.437456,23.5000131 C17.8541244,23.5833459 17.2916258,23.5833459 16.7499601,23.5000131 C16.1249616,23.3750134 15.2916305,23.0833471 14.249966,22.6250152 C12.1249711,21.7083504 10.1874757,20.0000215 8.43748346,17.5000274 L8.31248018,17.3750277 C7.39581538,16.0833638 6.93748346,14.8958666 6.93748346,13.8125362 C6.93748346,12.7292058 7.31248257,11.791708 8.06248078,11.0000441 L8.12498063,10.9375431 C8.41664692,10.6458768 8.72914617,10.5000441 9.06247839,10.5000441 L9.81247661,10.5000441 C9.97914319,10.5000441 10.1145589,10.531294 10.2187256,10.5937939 C10.3228924,10.6562937 10.4166421,10.8125434 10.499975,11.0625428 L11.5624724,13.6250367 C11.6874721,13.8750361 11.7083051,14.0833686 11.6249723,14.2500352 C11.4166398,14.6667012 11.1458064,15.0417003 10.8124742,15.3750325 C10.6458076,15.5416991 10.5416419,15.6771148 10.499975,15.7812815 C10.4583081,15.8854483 10.499975,16.000031 10.6249747,16.1250307 C11.2083063,17.2083611 11.8958047,18.0625261 12.6874698,18.6875246 C13.2708014,19.1458565 14.1457993,19.6666892 15.3124635,20.2500209 C15.6457957,20.4166874 15.8957951,20.3958535 16.0624617,20.187521 L16.5485719,19.618078 C16.8356083,19.2754863 17.0485707,19.0069685 17.187459,18.8125243 C17.2707918,18.6458577 17.3749586,18.5625249 17.4999583,18.5625249 C17.624958,18.5625249 17.7707906,18.5833579 17.9374572,18.6250247 L18.0952345,18.6883579 C18.4900483,18.8544686 19.2291208,19.2083567 20.3124516,19.7500221 Z" id=""></path>
                </g>
            </g>
        </g>
    </g>
</svg>